<?xml version="1.0" encoding="UTF-8"?>
<svg version="1.1" xmlns="http://www.w3.org/2000/svg" width="494" height="170">
<path d="M0 0 C3.37892041 1.72017766 6.34878298 3.56529771 9.4375 5.75 C10.283125 4.96625 11.12875 4.1825 12 3.375 C17.14737112 -0.89030987 22.87034641 -1.8260661 29.4375 -1.25 C35.62688443 0.15829206 38.92540377 2.48185566 42.4375 7.75 C44.26808314 12.26036874 44.6900744 16.06632924 44.69628906 20.91699219 C44.6997937 21.60715927 44.70329834 22.29732635 44.70690918 23.00840759 C44.71565504 25.27133475 44.70990551 27.53394512 44.703125 29.796875 C44.70447309 31.37534647 44.70641483 32.95381754 44.70892334 34.5322876 C44.71186437 37.83064755 44.70760759 41.12889881 44.69824219 44.42724609 C44.68681066 48.65987093 44.69343679 52.89224314 44.70538712 57.12485886 C44.71260141 60.3795768 44.71032044 63.63423444 44.70513153 66.88895416 C44.70379578 68.45031006 44.70544017 70.01167139 44.71009064 71.57302094 C44.71515296 73.74902459 44.70745193 75.92461332 44.69628906 78.10058594 C44.69469788 79.33935486 44.69310669 80.57812378 44.69146729 81.85443115 C44.4375 84.75 44.4375 84.75 42.4375 86.75 C40.0390625 87.00878906 40.0390625 87.00878906 37.0625 87.015625 C35.99515625 87.01820313 34.9278125 87.02078125 33.828125 87.0234375 C32.70921875 87.01570313 31.5903125 87.00796875 30.4375 87 C29.31859375 87.00773437 28.1996875 87.01546875 27.046875 87.0234375 C25.97953125 87.02085937 24.9121875 87.01828125 23.8125 87.015625 C22.83023438 87.01336914 21.84796875 87.01111328 20.8359375 87.00878906 C18.4375 86.75 18.4375 86.75 16.4375 84.75 C16.1590271 82.00387573 16.1590271 82.00387573 16.11865234 78.46435547 C16.10860672 77.82032776 16.0985611 77.17630005 16.08821106 76.51275635 C16.05728417 74.38090927 16.04031806 72.24918829 16.0234375 70.1171875 C16.00473344 68.64029854 15.9851606 67.16342035 15.9647522 65.68655396 C15.91334424 61.79695983 15.87376515 57.90733102 15.83660889 54.01757812 C15.79662333 50.04939128 15.74550622 46.08134978 15.6953125 42.11328125 C15.59845074 34.32562041 15.51407905 26.53788948 15.4375 18.75 C13.9525 18.255 13.9525 18.255 12.4375 17.75 C12.42941315 18.58493988 12.42132629 19.41987976 12.41299438 20.28012085 C12.33514279 28.13805329 12.24788107 35.99581219 12.14997292 43.85352135 C12.09996793 47.89352338 12.05363852 51.93349874 12.015625 55.97363281 C11.97882492 59.87057538 11.93247987 63.76729691 11.87943649 67.66405106 C11.86086435 69.15279906 11.84576686 70.64159449 11.83415604 72.13041306 C11.81734131 74.21135986 11.78831943 76.29179733 11.75634766 78.37255859 C11.74302399 79.55836517 11.72970032 80.74417175 11.7159729 81.96591187 C11.4375 84.75 11.4375 84.75 9.4375 86.75 C7.0390625 87.00878906 7.0390625 87.00878906 4.0625 87.015625 C2.99515625 87.01820313 1.9278125 87.02078125 0.828125 87.0234375 C-0.29078125 87.01570313 -1.4096875 87.00796875 -2.5625 87 C-3.68140625 87.00773437 -4.8003125 87.01546875 -5.953125 87.0234375 C-7.02046875 87.02085937 -8.0878125 87.01828125 -9.1875 87.015625 C-10.66089844 87.01224121 -10.66089844 87.01224121 -12.1640625 87.00878906 C-14.5625 86.75 -14.5625 86.75 -16.5625 84.75 C-16.8409729 81.96591187 -16.8409729 81.96591187 -16.88134766 78.37255859 C-16.89139328 77.71877731 -16.9014389 77.06499603 -16.91178894 76.3914032 C-16.94271789 74.22709038 -16.95968254 72.06290177 -16.9765625 69.8984375 C-16.9952664 68.39912846 -17.01483922 66.89983002 -17.0352478 65.40054321 C-17.08665753 61.45176438 -17.12623568 57.50295137 -17.16339111 53.55401611 C-17.20337556 49.52550749 -17.25449317 45.49714206 -17.3046875 41.46875 C-17.40155136 33.56259767 -17.4859224 25.65637471 -17.5625 17.75 C-18.8825 17.75 -20.2025 17.75 -21.5625 17.75 C-21.55583817 18.57019119 -21.54917633 19.39038239 -21.54231262 20.23542786 C-21.48223122 27.96045133 -21.43654087 35.68536171 -21.40706348 43.41055775 C-21.39139944 47.38228627 -21.37014801 51.35382193 -21.33618164 55.32543945 C-21.30361404 59.15743089 -21.28565255 62.98923668 -21.27786827 66.82135582 C-21.27232004 68.28422659 -21.26148575 69.74708707 -21.24530983 71.20987892 C-21.22356921 73.25708696 -21.22053153 75.3035254 -21.22192383 77.35083008 C-21.21526199 78.51665115 -21.20860016 79.68247223 -21.20173645 80.88362122 C-21.5625 83.75 -21.5625 83.75 -22.92678833 85.62667847 C-25.30996366 87.26331909 -27.16657206 87.12203342 -30.03515625 87.11328125 C-31.09927734 87.11263672 -32.16339844 87.11199219 -33.25976562 87.11132812 C-34.37029297 87.09521484 -35.48082031 87.07910156 -36.625 87.0625 C-38.2965918 87.06733398 -38.2965918 87.06733398 -40.00195312 87.07226562 C-48.29555861 87.01694139 -48.29555861 87.01694139 -50.5625 84.75 C-50.760896 82.14076595 -50.83525976 79.63767473 -50.82128906 77.02734375 C-50.82654602 75.83203537 -50.82654602 75.83203537 -50.83190918 74.61257935 C-50.84073278 71.97079838 -50.83487518 69.32928383 -50.828125 66.6875 C-50.82947147 64.85668893 -50.83141185 63.0258782 -50.83392334 61.19506836 C-50.83687545 57.3549459 -50.83257417 53.51491637 -50.82324219 49.67480469 C-50.8118476 44.74481306 -50.8184066 39.81503917 -50.83038712 34.88505554 C-50.83760337 31.10362091 -50.83531887 27.32223817 -50.83013153 23.540802 C-50.82879438 21.72266616 -50.83044502 19.90452566 -50.83509064 18.08639526 C-50.84015204 15.54835474 -50.83245123 13.01067016 -50.82128906 10.47265625 C-50.82533752 9.71622833 -50.82938599 8.95980042 -50.83355713 8.18045044 C-50.79102861 2.97852861 -50.79102861 2.97852861 -48.5625 0.75 C-44.43598942 0.26548618 -40.27671051 0.37960534 -36.125 0.375 C-34.96677734 0.35050781 -33.80855469 0.32601562 -32.61523438 0.30078125 C-31.50599609 0.29691406 -30.39675781 0.29304688 -29.25390625 0.2890625 C-27.72552124 0.27673584 -27.72552124 0.27673584 -26.16625977 0.26416016 C-23.5625 0.75 -23.5625 0.75 -21.70678711 2.77880859 C-21.32917236 3.42930176 -20.95155762 4.07979492 -20.5625 4.75 C-20.5625 4.09 -20.5625 3.43 -20.5625 2.75 C-13.32490417 -0.51201502 -7.84344462 -2.75208583 0 0 Z " fill="#2E96F7" transform="translate(376.5625,75.25)"/>
<path d="M0 0 C1.11431396 0.00410889 2.22862793 0.00821777 3.37670898 0.01245117 C4.58391602 0.01438477 5.79112305 0.01631836 7.03491211 0.01831055 C8.30141602 0.03055664 9.56791992 0.04280273 10.87280273 0.05541992 C12.77835938 0.05638672 12.77835938 0.05638672 14.72241211 0.05737305 C24.1702022 0.10281939 24.1702022 0.10281939 25.31030273 1.24291992 C25.43537755 3.85892445 25.49635679 6.44983927 25.515625 9.06738281 C25.5255246 9.88682877 25.53542419 10.70627472 25.54562378 11.55055237 C25.57733328 14.2721971 25.60203336 16.99385931 25.62670898 19.71557617 C25.64727037 21.59745246 25.66826661 23.47932404 25.68968201 25.3611908 C25.74498699 30.32435303 25.79435897 35.28755753 25.8425293 40.25079346 C25.89268296 45.31135843 25.94840097 50.37186173 26.00366211 55.43237305 C26.11134668 65.36916937 26.21276863 75.30601915 26.31030273 85.24291992 C28.28567018 84.89505284 28.28567018 84.89505284 30.31030273 84.24291992 C31.82977554 81.20397431 31.47207269 78.03882926 31.48388672 74.70385742 C31.49057373 73.92649231 31.49726074 73.1491272 31.50415039 72.34820557 C31.51821392 70.65779191 31.53010382 68.96735912 31.54009819 67.2769165 C31.55647848 64.60454336 31.5797136 61.9323126 31.60499573 59.26000977 C31.67586386 51.66128601 31.73598717 44.06250484 31.78710938 36.46362305 C31.81883896 31.81876891 31.86009625 27.17407927 31.90730476 22.52935791 C31.92335827 20.75590971 31.93566428 18.9824236 31.94421196 17.20892334 C31.95631872 14.73310565 31.98044726 12.25767736 32.00732422 9.78198242 C32.00791336 9.04425598 32.0085025 8.30652954 32.0091095 7.54644775 C32.08240406 2.4708186 32.08240406 2.4708186 34.31030273 0.24291992 C36.89233398 -0.01586914 36.89233398 -0.01586914 40.12280273 -0.02270508 C41.28038086 -0.0252832 42.43795898 -0.02786133 43.63061523 -0.03051758 C44.84491211 -0.0227832 46.05920898 -0.01504883 47.31030273 -0.00708008 C48.52459961 -0.01481445 49.73889648 -0.02254883 50.98999023 -0.03051758 C52.72635742 -0.02665039 52.72635742 -0.02665039 54.49780273 -0.02270508 C55.56385742 -0.02044922 56.62991211 -0.01819336 57.72827148 -0.01586914 C60.31030273 0.24291992 60.31030273 0.24291992 62.31030273 2.24291992 C62.57099915 5.12261963 62.57099915 5.12261963 62.58496094 8.85717773 C62.59007187 9.53723877 62.5951828 10.2172998 62.60044861 10.91796875 C62.61439817 13.17741608 62.61338137 15.43655948 62.61108398 17.69604492 C62.61497309 19.27390658 62.6193082 20.8517672 62.62406921 22.42962646 C62.63154659 25.74861017 62.63123294 29.06748762 62.62597656 32.38647461 C62.62023413 36.60242391 62.63697708 40.81792636 62.66032124 45.03380203 C62.67520554 48.30103018 62.67590963 51.56815501 62.67281151 54.83541107 C62.67331919 56.38685732 62.67845095 57.93831022 62.68862343 59.48972321 C62.77147992 73.91719176 62.25598011 88.15715364 51.56420898 99.01635742 C44.24301494 105.25687625 34.505308 106.85944248 25.10327148 106.52026367 C14.40644869 105.45806169 7.71741388 102.65954286 0.78295898 94.43041992 C-6.37468311 84.47196135 -4.98962774 70.66015916 -4.95532227 58.95385742 C-4.95667242 57.31670067 -4.95861586 55.67954431 -4.96112061 54.04238892 C-4.96404706 50.63865276 -4.95984928 47.23502255 -4.95043945 43.83129883 C-4.93895498 39.46432931 -4.94567622 35.09760326 -4.95758438 30.73064232 C-4.96479301 27.36270288 -4.96252125 23.99482179 -4.9573288 20.62688065 C-4.95599422 19.0152852 -4.95763332 17.40368446 -4.9622879 15.79209518 C-4.96734664 13.55208876 -4.95965668 11.31248596 -4.94848633 9.07250977 C-4.94689514 7.7985434 -4.94530396 6.52457703 -4.94366455 5.21200562 C-4.61099635 1.32284178 -3.92898057 0.35484575 0 0 Z " fill="#6E767A" transform="translate(14.689697265625,57.757080078125)"/>
<path d="M0 0 C1.11246094 -0.00257812 2.22492188 -0.00515625 3.37109375 -0.0078125 C4.53769531 -0.00007813 5.70429687 0.00765625 6.90625 0.015625 C8.07285156 0.00789063 9.23945312 0.00015625 10.44140625 -0.0078125 C11.55386719 -0.00523438 12.66632813 -0.00265625 13.8125 0 C14.83666016 0.00225586 15.86082031 0.00451172 16.91601562 0.00683594 C19.40625 0.265625 19.40625 0.265625 21.40625 2.265625 C21.72509766 4.14501953 21.72509766 4.14501953 21.8203125 6.3984375 C21.85898438 7.20410156 21.89765625 8.00976562 21.9375 8.83984375 C21.9684375 9.68160156 21.999375 10.52335937 22.03125 11.390625 C22.06992188 12.24011719 22.10859375 13.08960937 22.1484375 13.96484375 C22.24281494 16.06474184 22.32562586 18.16515391 22.40625 20.265625 C23.33695313 19.78480469 24.26765625 19.30398437 25.2265625 18.80859375 C32.07109024 15.48723201 39.75530078 15.33488177 47.03125 17.328125 C51.94521011 19.16979917 54.82992243 21.70990467 57.40625 26.265625 C59.43605804 33.47646557 59.70393635 40.82591353 59.671875 48.26953125 C59.67378845 49.2734642 59.6757019 50.27739716 59.67767334 51.31175232 C59.67902384 53.41674045 59.67540754 55.52173724 59.66699219 57.62670898 C59.65626519 60.82359741 59.66693239 64.01992546 59.6796875 67.21679688 C59.67836592 69.27604289 59.67580357 71.33528856 59.671875 73.39453125 C59.67592346 74.33647842 59.67997192 75.2784256 59.68414307 76.24891663 C59.6236953 84.92360596 59.15179724 93.37096831 53.40625 100.265625 C47.75414341 105.36630656 43.24829195 105.59559499 35.8515625 105.5625 C30.87787734 105.13392849 26.82756387 103.49870239 22.40625 101.265625 C21.74625 100.935625 21.08625 100.605625 20.40625 100.265625 C19.74625 101.585625 19.08625 102.905625 18.40625 104.265625 C14.44797765 104.32348147 10.4898133 104.35917217 6.53125 104.390625 C5.40332031 104.40738281 4.27539062 104.42414063 3.11328125 104.44140625 C1.49873047 104.45107422 1.49873047 104.45107422 -0.1484375 104.4609375 C-1.14343262 104.47141113 -2.13842773 104.48188477 -3.16357422 104.49267578 C-5.59375 104.265625 -5.59375 104.265625 -7.59375 102.265625 C-7.84543228 100.46337891 -7.84543228 100.46337891 -7.84771729 98.2421875 C-7.85335693 97.40091309 -7.85899658 96.55963867 -7.86480713 95.69287109 C-7.86075867 94.76812988 -7.85671021 93.84338867 -7.85253906 92.890625 C-7.8560437 91.91818848 -7.85954834 90.94575195 -7.86315918 89.94384766 C-7.87198802 86.7177016 -7.86612324 83.49177343 -7.859375 80.265625 C-7.86072132 78.03124957 -7.86266157 75.79687442 -7.86517334 73.5625 C-7.86812617 68.87497169 -7.86382184 64.18751948 -7.85449219 59.5 C-7.84309761 53.48040712 -7.84965623 47.46099258 -7.86163712 41.44140625 C-7.86885142 36.82615812 -7.86656976 32.21095251 -7.86138153 27.59570312 C-7.86004384 25.37565083 -7.86169689 23.15559472 -7.86634064 20.93554688 C-7.87139879 17.83713496 -7.86370559 14.73901507 -7.85253906 11.640625 C-7.85658752 10.71588379 -7.86063599 9.79114258 -7.86480713 8.83837891 C-7.85916748 7.99710449 -7.85352783 7.15583008 -7.84771729 6.2890625 C-7.84696323 5.55606934 -7.84620918 4.82307617 -7.84543228 4.06787109 C-7.20820891 -0.49515705 -3.74813042 0.00825579 0 0 Z M21.40625 36.265625 C21.31298284 37.83109548 21.28879418 39.40075272 21.29272461 40.96899414 C21.29280014 41.96995621 21.29287567 42.97091827 21.29295349 44.00221252 C21.29811478 45.0907402 21.30327606 46.17926788 21.30859375 47.30078125 C21.3100087 48.40916855 21.31142365 49.51755585 21.31288147 50.65953064 C21.31849967 54.21575569 21.33105525 57.77191883 21.34375 61.328125 C21.34876266 63.73242097 21.35332597 66.13671792 21.35742188 68.54101562 C21.36847501 74.44924004 21.38523083 80.3574281 21.40625 86.265625 C24.04625 86.265625 26.68625 86.265625 29.40625 86.265625 C30.21427707 83.41998737 30.5363542 80.88240866 30.55151367 77.92773438 C30.55789352 77.08005493 30.56427338 76.23237549 30.57084656 75.35900879 C30.57195938 74.45162964 30.5730722 73.54425049 30.57421875 72.609375 C30.57921135 71.20044983 30.57921135 71.20044983 30.58430481 69.76306152 C30.58936185 67.77938323 30.59171351 65.79569645 30.59155273 63.81201172 C30.59374188 60.77687618 30.61191785 57.74210264 30.63085938 54.70703125 C30.633793 52.77864708 30.635778 50.85026118 30.63671875 48.921875 C30.64749702 47.56080627 30.64749702 47.56080627 30.65849304 46.17224121 C30.65541641 45.32456177 30.65233978 44.47688232 30.64916992 43.60351562 C30.65059494 42.86057251 30.65201996 42.11762939 30.65348816 41.35217285 C30.37109251 38.96891601 29.58702128 37.33851059 28.40625 35.265625 C24.60003955 34.82715141 24.60003955 34.82715141 21.40625 36.265625 Z " fill="#6E767A" transform="translate(90.59375,57.734375)"/>
<path d="M0 0 C7.03955936 5.84296156 9.481121 11.46259987 10.66015625 20.41796875 C10.88404993 23.43367953 11.09971748 26.41860974 10.66015625 29.41796875 C8.66015625 31.41796875 8.66015625 31.41796875 6.15405273 31.66088867 C5.12352783 31.65677979 4.09300293 31.6526709 3.03125 31.6484375 C1.91427734 31.64650391 0.79730469 31.64457031 -0.35351562 31.64257812 C-2.11018555 31.62420898 -2.11018555 31.62420898 -3.90234375 31.60546875 C-5.07732422 31.60482422 -6.25230469 31.60417969 -7.46289062 31.60351562 C-16.19972234 31.55809016 -16.19972234 31.55809016 -17.33984375 30.41796875 C-17.57512148 28.06809613 -17.75370792 25.71240836 -17.90234375 23.35546875 C-17.98613281 22.06511719 -18.06992188 20.77476563 -18.15625 19.4453125 C-18.21683594 18.44628906 -18.27742188 17.44726562 -18.33984375 16.41796875 C-20.31984375 16.41796875 -22.29984375 16.41796875 -24.33984375 16.41796875 C-24.36696441 17.85536388 -24.38629442 19.29290738 -24.40234375 20.73046875 C-24.41394531 21.53097656 -24.42554688 22.33148438 -24.4375 23.15625 C-24.4364223 25.58658209 -24.4364223 25.58658209 -23.33984375 28.41796875 C-21.80432066 29.6951821 -21.80432066 29.6951821 -19.875 30.80078125 C-19.16190674 31.24123779 -18.44881348 31.68169434 -17.71411133 32.13549805 C-16.95122803 32.59996338 -16.18834473 33.06442871 -15.40234375 33.54296875 C-4.0768051 40.66380226 8.25822565 49.22577258 12.19140625 62.734375 C13.90209699 72.52807951 13.96675453 83.20845495 8.1484375 91.59765625 C2.32956118 98.73722136 -4.20115255 102.26495631 -13.33984375 103.41796875 C-22.90461628 104.17308237 -32.11831662 103.12542726 -40.71484375 98.66796875 C-48.27592903 92.18703851 -52.25768541 85.62438129 -53.21484375 75.57421875 C-53.71908206 66.87610791 -53.71908206 66.87610791 -53.33984375 63.41796875 C-50.69284759 60.77097259 -49.43589966 61.16047108 -45.74609375 61.15234375 C-44.63363281 61.14976563 -43.52117187 61.1471875 -42.375 61.14453125 C-41.20839844 61.15226562 -40.04179687 61.16 -38.83984375 61.16796875 C-37.67324219 61.16023438 -36.50664062 61.1525 -35.3046875 61.14453125 C-34.19222656 61.14710937 -33.07976562 61.1496875 -31.93359375 61.15234375 C-30.90943359 61.15459961 -29.88527344 61.15685547 -28.83007812 61.15917969 C-26.33984375 61.41796875 -26.33984375 61.41796875 -24.33984375 63.41796875 C-24.02099609 65.29736328 -24.02099609 65.29736328 -23.92578125 67.55078125 C-23.88710937 68.35644531 -23.8484375 69.16210938 -23.80859375 69.9921875 C-23.7621875 71.25482422 -23.7621875 71.25482422 -23.71484375 72.54296875 C-23.67617187 73.39246094 -23.6375 74.24195313 -23.59765625 75.1171875 C-23.50327881 77.21708559 -23.42046789 79.31749766 -23.33984375 81.41796875 C-21.6737247 81.46068975 -20.0060149 81.45860707 -18.33984375 81.41796875 C-16.56037903 79.63850403 -17.0012096 77.20769218 -16.90234375 74.79296875 C-16.81146484 73.25769531 -16.81146484 73.25769531 -16.71875 71.69140625 C-17.93684793 65.27149389 -22.6809836 61.72690609 -27.8359375 58.1015625 C-29.47630369 57.00929629 -31.12359582 55.92736636 -32.77734375 54.85546875 C-51.2573179 42.73388319 -51.2573179 42.73388319 -53.33984375 33.41796875 C-54.36754763 24.10791606 -54.68570362 14.47414219 -49.33984375 6.41796875 C-48.80359375 5.51046875 -48.26734375 4.60296875 -47.71484375 3.66796875 C-36.54730432 -6.91180544 -12.8229602 -8.66994805 0 0 Z " fill="#2E96F7" transform="translate(244.33984375,60.58203125)"/>
<path d="M0 0 C8.80598548 9.52484143 8.13388002 19.72463645 8.14453125 32.08984375 C8.14774844 33.44268325 8.15111286 34.79552242 8.15461731 36.14836121 C8.16057749 38.96992806 8.16246009 41.79146441 8.16186523 44.61303711 C8.16176301 48.23243722 8.17549018 51.85164379 8.19263744 55.47099781 C8.20373092 58.25818285 8.20578538 61.04532039 8.20525551 63.83252525 C8.20701088 65.81681646 8.2178549 67.80109285 8.22880554 69.78535461 C8.22572891 70.98387558 8.22265228 72.18239655 8.21948242 73.41723633 C8.22090744 74.47534012 8.22233246 75.53344391 8.22380066 76.62361145 C7.9765625 79.1328125 7.9765625 79.1328125 5.9765625 81.1328125 C2.01709359 81.61562508 -1.97538061 81.50320225 -5.9609375 81.5078125 C-7.07146484 81.53230469 -8.18199219 81.55679688 -9.32617188 81.58203125 C-10.39029297 81.58589844 -11.45441406 81.58976562 -12.55078125 81.59375 C-13.52781006 81.60196777 -14.50483887 81.61018555 -15.51147461 81.61865234 C-18.0234375 81.1328125 -18.0234375 81.1328125 -19.86547852 79.10400391 C-20.24760498 78.45351074 -20.62973145 77.80301758 -21.0234375 77.1328125 C-21.9515625 77.7721875 -22.8796875 78.4115625 -23.8359375 79.0703125 C-29.69172884 82.85935395 -35.22955887 82.61937675 -42.0234375 82.1328125 C-47.2386857 80.426004 -49.88156831 77.58379386 -53.0234375 73.1328125 C-55.23341576 67.98133008 -55.35758897 63.26594683 -55.3359375 57.7578125 C-55.35205078 56.94570312 -55.36816406 56.13359375 -55.38476562 55.296875 C-55.38985028 48.95122137 -54.67561178 43.01118501 -50.19140625 38.14453125 C-49.53785156 37.70753906 -48.88429688 37.27054688 -48.2109375 36.8203125 C-47.56511719 36.37042969 -46.91929687 35.92054687 -46.25390625 35.45703125 C-43.57733529 33.86796373 -40.82171396 32.49402829 -38.0234375 31.1328125 C-39.08304687 31.15601563 -40.14265625 31.17921875 -41.234375 31.203125 C-42.6223888 31.22188194 -44.0104102 31.24008222 -45.3984375 31.2578125 C-46.09710938 31.27457031 -46.79578125 31.29132813 -47.515625 31.30859375 C-49.35241236 31.32625517 -51.18945713 31.23584511 -53.0234375 31.1328125 C-55.71854244 28.43770756 -55.35366605 26.96059145 -55.3984375 23.1953125 C-55.24146266 14.83871068 -53.58772122 7.49552211 -47.8359375 1.1953125 C-36.13880029 -9.22713668 -11.89918046 -10.98032483 0 0 Z M-27.0234375 12.1328125 C-28.48956653 15.06507055 -28.33637432 17.87256847 -28.5234375 21.1328125 C-28.91232639 27.91059028 -28.91232639 27.91059028 -30.0234375 30.1328125 C-25.05432384 29.00584207 -25.05432384 29.00584207 -21.0234375 26.1328125 C-20.74164761 23.30289081 -20.74164761 23.30289081 -20.8359375 20.1328125 C-20.84238281 19.0603125 -20.84882813 17.9878125 -20.85546875 16.8828125 C-20.84080327 14.17153752 -20.84080327 14.17153752 -22.0234375 12.1328125 C-23.6734375 12.1328125 -25.3234375 12.1328125 -27.0234375 12.1328125 Z M-27.0234375 47.1328125 C-28.37625121 49.83843993 -28.22953112 52.05174905 -28.2734375 55.0703125 C-28.29921875 56.13121094 -28.325 57.19210938 -28.3515625 58.28515625 C-28.24012921 61.11630944 -28.24012921 61.11630944 -26.7578125 63.07421875 C-26.18546875 63.42355469 -25.613125 63.77289063 -25.0234375 64.1328125 C-23.7034375 63.8028125 -22.3834375 63.4728125 -21.0234375 63.1328125 C-20.6934375 56.5328125 -20.3634375 49.9328125 -20.0234375 43.1328125 C-23.18721419 43.1328125 -24.71199026 45.11770465 -27.0234375 47.1328125 Z " fill="#2E96F7" transform="translate(313.0234375,80.8671875)"/>
<path d="M0 0 C1.44224945 -0.01925285 1.44224945 -0.01925285 2.91363525 -0.03889465 C4.47764069 -0.04997505 4.47764069 -0.04997505 6.07324219 -0.0612793 C7.14378845 -0.06935104 8.21433472 -0.07742279 9.31732178 -0.08573914 C11.58701962 -0.09958782 13.85673836 -0.11030645 16.12646484 -0.11816406 C19.59220069 -0.13535954 23.05697852 -0.17923769 26.52246094 -0.22338867 C28.726881 -0.23351696 30.93130918 -0.24203264 33.13574219 -0.2487793 C34.17031555 -0.26628738 35.20488892 -0.28379547 36.27081299 -0.30183411 C42.31437115 -0.28368331 45.76928487 0.15058382 50.37011719 4.17700195 C53.90037499 8.18432162 55.48554277 10.50293836 55.54711914 15.80688477 C55.56637199 17.24913422 55.56637199 17.24913422 55.58601379 18.72052002 C55.59340073 19.76319031 55.60078766 20.8058606 55.60839844 21.88012695 C55.61647018 22.95067322 55.62454193 24.02121948 55.63285828 25.12420654 C55.64670697 27.39390438 55.65742559 29.66362312 55.6652832 31.93334961 C55.68247868 35.39908546 55.72635683 38.86386328 55.77050781 42.3293457 C55.7806361 44.53376577 55.78915178 46.73819395 55.79589844 48.94262695 C55.81340652 49.97720032 55.83091461 51.01177368 55.84895325 52.07769775 C55.83080245 58.12125592 55.39653532 61.57616963 51.37011719 66.17700195 C47.36279752 69.70725976 45.04418078 71.29242753 39.74023438 71.35400391 C38.29798492 71.37325676 38.29798492 71.37325676 36.82659912 71.39289856 C35.78392883 71.40028549 34.74125854 71.40767242 33.66699219 71.4152832 C32.59644592 71.42335495 31.52589966 71.4314267 30.4229126 71.43974304 C28.15321476 71.45359173 25.88349602 71.46431036 23.61376953 71.47216797 C20.14803368 71.48936344 16.68325586 71.53324159 13.21777344 71.57739258 C11.01335337 71.58752086 8.80892519 71.59603654 6.60449219 71.6027832 C5.56991882 71.62029129 4.53534546 71.63779938 3.46942139 71.65583801 C-2.57413678 71.63768722 -6.02905049 71.20342008 -10.62988281 67.17700195 C-14.16014062 63.16968228 -15.74530839 60.85106555 -15.80688477 55.54711914 C-15.81972 54.58561951 -15.83255524 53.62411987 -15.84577942 52.63348389 C-15.85316635 51.5908136 -15.86055328 50.54814331 -15.86816406 49.47387695 C-15.87623581 48.40333069 -15.88430756 47.33278442 -15.8926239 46.22979736 C-15.90647259 43.96009952 -15.91719122 41.69038079 -15.92504883 39.4206543 C-15.9422443 35.95491845 -15.98612245 32.49014062 -16.03027344 29.0246582 C-16.04040172 26.82023814 -16.0489174 24.61580996 -16.05566406 22.41137695 C-16.07317215 21.37680359 -16.09068024 20.34223022 -16.10871887 19.27630615 C-16.09056808 13.23274799 -15.65630094 9.77783427 -11.62988281 5.17700195 C-7.62256314 1.64674415 -5.30394641 0.06157637 0 0 Z M-1.62988281 13.17700195 C-1.62988281 15.48700195 -1.62988281 17.79700195 -1.62988281 20.17700195 C-0.86804688 20.33555664 -0.10621094 20.49411133 0.67871094 20.6574707 C13.19178855 23.48502008 22.70729168 28.64831828 29.97558594 39.5949707 C33.19843187 45.53975102 34.52017469 51.50431903 35.37011719 58.17700195 C38.01011719 58.17700195 40.65011719 58.17700195 43.37011719 58.17700195 C42.28160413 44.80384158 37.51455532 32.1031964 27.04589844 23.20043945 C17.7666365 16.72796253 9.72105114 13.6085964 -1.62988281 13.17700195 Z M-1.62988281 29.17700195 C-1.62988281 31.48700195 -1.62988281 33.79700195 -1.62988281 36.17700195 C-0.56060547 36.48831055 -0.56060547 36.48831055 0.53027344 36.8059082 C7.2277978 38.96029356 12.3733754 41.20361069 16.37011719 47.17700195 C17.99687174 50.76941825 19.26837784 54.39276679 20.37011719 58.17700195 C22.68011719 58.17700195 24.99011719 58.17700195 27.37011719 58.17700195 C26.32235898 48.51233574 23.40569441 42.30429684 16.62011719 35.36450195 C10.98055945 31.56864578 5.26238189 28.84528868 -1.62988281 29.17700195 Z M-1.62988281 49.17700195 C-2.04654948 52.67700195 -2.04654948 52.67700195 -1.62988281 56.17700195 C-0.96988281 56.83700195 -0.30988281 57.49700195 0.37011719 58.17700195 C4.71206655 58.0800508 4.71206655 58.0800508 8.37011719 56.17700195 C8.70350315 52.71888026 8.70350315 52.71888026 8.37011719 49.17700195 C4.27098111 46.44424457 2.46925327 46.44424457 -1.62988281 49.17700195 Z " fill="#2E96F7" transform="translate(429.6298828125,8.822998046875)"/>
<path d="M0 0 C1.11246094 -0.00257812 2.22492188 -0.00515625 3.37109375 -0.0078125 C4.53769531 -0.00007813 5.70429688 0.00765625 6.90625 0.015625 C8.07285156 0.00789063 9.23945313 0.00015625 10.44140625 -0.0078125 C11.55386719 -0.00523438 12.66632813 -0.00265625 13.8125 0 C14.83666016 0.00225586 15.86082031 0.00451172 16.91601562 0.00683594 C19.40625 0.265625 19.40625 0.265625 21.40625 2.265625 C21.604646 4.87485905 21.67900976 7.37795027 21.66503906 9.98828125 C21.6685437 10.7851535 21.67204834 11.58202576 21.67565918 12.40304565 C21.68448278 15.04482662 21.67862518 17.68634117 21.671875 20.328125 C21.67322147 22.15893607 21.67516185 23.9897468 21.67767334 25.82055664 C21.68062545 29.6606791 21.67632417 33.50070863 21.66699219 37.34082031 C21.6555976 42.27081194 21.6621566 47.20058583 21.67413712 52.13056946 C21.68135337 55.91200409 21.67906887 59.69338683 21.67388153 63.474823 C21.67254438 65.29295884 21.67419502 67.11109934 21.67884064 68.92922974 C21.68390204 71.46727026 21.67620123 74.00495484 21.66503906 76.54296875 C21.66908752 77.29939667 21.67313599 78.05582458 21.67730713 78.83517456 C21.63477861 84.03709639 21.63477861 84.03709639 19.40625 86.265625 C16.91601562 86.52441406 16.91601562 86.52441406 13.8125 86.53125 C12.70003906 86.53382813 11.58757812 86.53640625 10.44140625 86.5390625 C9.27480469 86.53132813 8.10820312 86.52359375 6.90625 86.515625 C5.73964844 86.52335937 4.57304687 86.53109375 3.37109375 86.5390625 C2.25863281 86.53648437 1.14617187 86.53390625 0 86.53125 C-1.02416016 86.52899414 -2.04832031 86.52673828 -3.10351562 86.52441406 C-5.59375 86.265625 -5.59375 86.265625 -7.59375 84.265625 C-7.792146 81.65639095 -7.86650976 79.15329973 -7.85253906 76.54296875 C-7.85779602 75.34766037 -7.85779602 75.34766037 -7.86315918 74.12820435 C-7.87198278 71.48642338 -7.86612518 68.84490883 -7.859375 66.203125 C-7.86072147 64.37231393 -7.86266185 62.5415032 -7.86517334 60.71069336 C-7.86812545 56.8705709 -7.86382417 53.03054137 -7.85449219 49.19042969 C-7.8430976 44.26043806 -7.8496566 39.33066417 -7.86163712 34.40068054 C-7.86885337 30.61924591 -7.86656887 26.83786317 -7.86138153 23.056427 C-7.86004438 21.23829116 -7.86169502 19.42015066 -7.86634064 17.60202026 C-7.87140204 15.06397974 -7.86370123 12.52629516 -7.85253906 9.98828125 C-7.85658752 9.23185333 -7.86063599 8.47542542 -7.86480713 7.69607544 C-7.81104157 1.11968289 -6.41427071 0.01412835 0 0 Z " fill="#6E767A" transform="translate(163.59375,75.734375)"/>
<path d="M0 0 C1.11246094 -0.00257812 2.22492188 -0.00515625 3.37109375 -0.0078125 C4.53769531 -0.00007813 5.70429688 0.00765625 6.90625 0.015625 C8.07285156 0.00789063 9.23945313 0.00015625 10.44140625 -0.0078125 C11.55386719 -0.00523438 12.66632813 -0.00265625 13.8125 0 C14.83666016 0.00225586 15.86082031 0.00451172 16.91601562 0.00683594 C19.40625 0.265625 19.40625 0.265625 21.40625 2.265625 C21.671875 5.234375 21.671875 5.234375 21.65625 8.765625 C21.66140625 9.9309375 21.6665625 11.09625 21.671875 12.296875 C21.40625 15.265625 21.40625 15.265625 19.40625 17.265625 C16.91601563 17.52441406 16.91601563 17.52441406 13.8125 17.53125 C12.70003906 17.53382812 11.58757812 17.53640625 10.44140625 17.5390625 C9.27480469 17.53132813 8.10820312 17.52359375 6.90625 17.515625 C5.73964844 17.52335937 4.57304687 17.53109375 3.37109375 17.5390625 C2.25863281 17.53648438 1.14617187 17.53390625 0 17.53125 C-1.02416016 17.52899414 -2.04832031 17.52673828 -3.10351562 17.52441406 C-5.59375 17.265625 -5.59375 17.265625 -7.59375 15.265625 C-7.859375 12.296875 -7.859375 12.296875 -7.84375 8.765625 C-7.84890625 7.6003125 -7.8540625 6.435 -7.859375 5.234375 C-7.37475971 -0.18191353 -4.76453978 0.01049458 0 0 Z " fill="#6E767A" transform="translate(163.59375,57.734375)"/>
</svg>
